<?xml version="1.0" encoding="UTF-8" standalone="no"?>
<!-- Uploaded to: SVG Repo, www.svgrepo.com, Generator: SVG Repo Mixer Tools -->

<svg
   width="800px"
   height="800px"
   viewBox="0 0 24 24"
   fill="none"
   version="1.1"
   id="svg4"
   sodipodi:docname="left.svg"
   inkscape:version="1.3 (0e150ed6c4, 2023-07-21)"
   inkscape:export-filename="left.png"
   inkscape:export-xdpi="17.280001"
   inkscape:export-ydpi="17.280001"
   xmlns:inkscape="http://www.inkscape.org/namespaces/inkscape"
   xmlns:sodipodi="http://sodipodi.sourceforge.net/DTD/sodipodi-0.dtd"
   xmlns="http://www.w3.org/2000/svg"
   xmlns:svg="http://www.w3.org/2000/svg">
  <defs
     id="defs4" />
  <sodipodi:namedview
     id="namedview4"
     pagecolor="#ffffff"
     bordercolor="#000000"
     borderopacity="0.25"
     inkscape:showpageshadow="2"
     inkscape:pageopacity="0.0"
     inkscape:pagecheckerboard="0"
     inkscape:deskcolor="#d1d1d1"
     inkscape:zoom="1.02625"
     inkscape:cx="400.97442"
     inkscape:cy="400"
     inkscape:window-width="1920"
     inkscape:window-height="1017"
     inkscape:window-x="-8"
     inkscape:window-y="-8"
     inkscape:window-maximized="1"
     inkscape:current-layer="svg4" />
  <path
     opacity="0.1"
     d="M3 12C3 4.5885 4.5885 3 12 3C19.4115 3 21 4.5885 21 12C21 19.4115 19.4115 21 12 21C4.5885 21 3 19.4115 3 12Z"
     fill="#323232"
     id="path1" />
  <path
     d="M3 12C3 4.5885 4.5885 3 12 3C19.4115 3 21 4.5885 21 12C21 19.4115 19.4115 21 12 21C4.5885 21 3 19.4115 3 12Z"
     stroke="#323232"
     stroke-width="2"
     id="path2"
     style="stroke:#323278;stroke-opacity:1;fill:#4fd3ff;fill-opacity:1"
     inkscape:export-filename=".\left.png"
     inkscape:export-xdpi="17.280001"
     inkscape:export-ydpi="17.280001" />
  <path
     d="M8 12L16 12"
     stroke="#323232"
     stroke-width="2"
     stroke-linecap="round"
     stroke-linejoin="round"
     id="path3"
     style="stroke:#323278;stroke-opacity:1" />
  <path
     d="M11 9L8.08704 11.913V11.913C8.03897 11.961 8.03897 12.039 8.08704 12.087V12.087L11 15"
     stroke="#323232"
     stroke-width="2"
     stroke-linecap="round"
     stroke-linejoin="round"
     id="path4"
     style="stroke:#323278;stroke-opacity:1" />
</svg>
