<?xml version="1.0" encoding="UTF-8" standalone="no"?>
<!-- Uploaded to: SVG Repo, www.svgrepo.com, Generator: SVG Repo Mixer Tools -->

<svg
   width="800px"
   height="800px"
   viewBox="0 0 24 24"
   fill="none"
   version="1.1"
   id="svg4"
   sodipodi:docname="rotate.svg"
   inkscape:version="1.3 (0e150ed6c4, 2023-07-21)"
   xmlns:inkscape="http://www.inkscape.org/namespaces/inkscape"
   xmlns:sodipodi="http://sodipodi.sourceforge.net/DTD/sodipodi-0.dtd"
   xmlns="http://www.w3.org/2000/svg"
   xmlns:svg="http://www.w3.org/2000/svg">
  <defs
     id="defs4" />
  <sodipodi:namedview
     id="namedview4"
     pagecolor="#ffffff"
     bordercolor="#000000"
     borderopacity="0.25"
     inkscape:showpageshadow="2"
     inkscape:pageopacity="0.0"
     inkscape:pagecheckerboard="0"
     inkscape:deskcolor="#d1d1d1"
     inkscape:zoom="1.02625"
     inkscape:cx="400.48721"
     inkscape:cy="400"
     inkscape:window-width="1920"
     inkscape:window-height="1017"
     inkscape:window-x="-8"
     inkscape:window-y="-8"
     inkscape:window-maximized="1"
     inkscape:current-layer="svg4" />
  <path
     opacity="0.1"
     d="M 3,11.634592 C 3,4.5240055 4.6504147,3 12.350792,3 c 7.700377,0 9.350791,1.5240055 9.350791,8.634592 0,7.110586 -1.650414,8.634592 -9.350791,8.634592 C 4.6504147,20.269184 3,18.745178 3,11.634592 Z"
     fill="#323232"
     id="path1"
     style="stroke-width:1.99689;stroke-dasharray:none" />
  <path
     d="M3 12C3 4.5885 4.5885 3 12 3C19.4115 3 21 4.5885 21 12C21 19.4115 19.4115 21 12 21C4.5885 21 3 19.4115 3 12Z"
     stroke="#323232"
     stroke-width="2"
     id="path2"
     style="stroke:#007800;stroke-opacity:1;fill:#ffff00;fill-opacity:1"
     inkscape:export-filename="rotate_active.png"
     inkscape:export-xdpi="17.280001"
     inkscape:export-ydpi="17.280001" />
  <path
     d="M 13.628461,9.8213556 C 13.108372,9.3873362 12.47695,9.0434575 11.715189,9.0434575 c -1.8098619,0 -3.2770489,1.5302305 -3.2770489,3.4178705 0,1.887621 1.467187,3.417869 3.2770489,3.417869 1.422196,0 2.633874,-0.945428 3.086806,-2.266913 0.08123,-0.237018 0.310402,-0.395926 0.546481,-0.343747 l 0.427414,0.09451 c 0.236079,0.05218 0.38892,0.295079 0.31652,0.535196 -0.58515,1.940484 -2.322904,3.3481 -4.377221,3.3481 -2.5338098,0 -4.5878687,-2.142321 -4.5878687,-4.785018 0,-2.642693 2.0540589,-4.7850186 4.5878687,-4.7850186 1.216223,0 2.163552,0.5780621 2.845003,1.1732865 l 0.778496,-0.8119508 c 0.124965,-0.1303348 0.312893,-0.1693213 0.476177,-0.098786 0.163285,0.070536 0.269724,0.236708 0.269724,0.4210269 v 2.506439 c 0,0.251682 -0.195618,0.455716 -0.436941,0.455716 h -2.403169 c -0.176698,0 -0.336051,-0.111031 -0.403689,-0.281323 -0.06759,-0.170288 -0.03023,-0.366301 0.09473,-0.496635 z"
     fill="#000000"
     id="path1-9"
     style="stroke-width:0.9;stroke-dasharray:none;stroke:#007800;stroke-opacity:1;fill:#007800;fill-opacity:1" />
</svg>
